<?xml version="1.0" encoding="utf-8"?>
<!-- Generator: Adobe Illustrator 16.0.3, SVG Export Plug-In . SVG Version: 6.00 Build 0)  -->
<!DOCTYPE svg PUBLIC "-//W3C//DTD SVG 1.1//EN" "http://www.w3.org/Graphics/SVG/1.1/DTD/svg11.dtd">
<svg version="1.1" id="Capa_1" xmlns="http://www.w3.org/2000/svg" xmlns:xlink="http://www.w3.org/1999/xlink" x="0px" y="0px"
	 width="134px" height="135px" viewBox="0 0 134 135" enable-background="new 0 0 134 135" xml:space="preserve">
<path fill="#7FCA20" d="M6,98c1.47-3.604,0.206-7.197,0.04-11c-0.253-5.768,0.142-11.426,1.707-17
	C13.792,48.458,46.901,22.135,66,45c4.233-2.883,7.961-6.264,13-7.699c13.031-3.71,23.992,5.951,28,17.699
	c2.51-4.189,2.102-9.233,1.984-14C108.58,24.513,99.213,5.955,82,2.211C48.895-4.988,13.566,12.852,3.028,46
	C-2.484,63.339-0.443,81.299,6,98z"/>
<path fill="#02C1D3" d="M100,10c5.747,10.323,10.667,18.928,11.83,31c2.715,28.163-18.726,53.137-41.83,66v2
	c16.55,6.375,39.924,8.789,53.787-5.21C131.348,96.156,133.982,82.307,134,72C134.037,48.88,125.094,18.013,100,10z"/>
<path fill="#66BDE8" d="M118,110c-10.996,3.143-20.175,7.251-32,5.711c-13.67-1.781-25.534-9.459-36-17.972
	C37.505,87.576,23.231,72.631,26.329,55c0.702-3.994,2.817-7.461,4.671-11c-6.746,1.604-12.137,7.344-15.895,13
	c-9.269,13.947-9.423,36.092-2.189,51c3.128,6.448,9.337,11.256,15.084,15.279c19.376,13.563,45.529,15.527,67,5.855
	C103.695,125.218,113.866,118.865,118,110z"/>
</svg>
